/* XPM */
static char *_907_64f5ca92f115093b75f593734f7e44b20c1bc5366e132ba754e2b31dab69aafa[] = {
/* columns rows colors chars-per-pixel */
"50 50 208 2 ",
"   c #010102",
".  c #0A0501",
"X  c #010E07",
"o  c #01010B",
"O  c #010F0F",
"+  c #000013",
"@  c #080611",
"#  c #00001C",
"$  c #000023",
"%  c #02002B",
"&  c #010132",
"*  c #090134",
"=  c #02023D",
"-  c #0B043B",
";  c #0E0C3D",
":  c #060443",
">  c #170C48",
",  c #181347",
"<  c #0A0552",
"1  c #0E0B52",
"2  c #070652",
"3  c #110D57",
"4  c #130E60",
"5  c #151166",
"6  c #12106C",
"7  c #18126A",
"8  c #1E2377",
"9  c #2D2373",
"0  c #27207D",
"q  c #2D247A",
"w  c #30267D",
"e  c #342A7C",
"r  c #332874",
"t  c #2B2483",
"y  c #2C228B",
"u  c #272684",
"i  c #382A81",
"p  c #302989",
"a  c #322C92",
"s  c #392B9C",
"d  c #3E379F",
"f  c #36339C",
"g  c #3E34A4",
"h  c #433D9B",
"j  c #463CAE",
"k  c #4739A5",
"l  c #4D3DBA",
"z  c #47419B",
"x  c #4A45A5",
"c  c #4B43AC",
"v  c #4E48AA",
"b  c #5547BB",
"n  c #574CBB",
"m  c #5649BA",
"M  c #5B4BC4",
"N  c #5D4DCB",
"B  c #554AC4",
"V  c #5D53CC",
"C  c #5E53D5",
"Z  c #5F53DC",
"A  c #6850CC",
"S  c #6353C9",
"D  c #624DDE",
"F  c #694DD8",
"G  c #6555D4",
"H  c #6552DA",
"J  c #6954DB",
"K  c #635CDD",
"L  c #644DE3",
"P  c #6B4CE5",
"I  c #6D4CEC",
"U  c #654DE9",
"Y  c #724DE7",
"T  c #754DEB",
"R  c #7F4CEF",
"E  c #6B53E4",
"W  c #645AE1",
"Q  c #6455ED",
"!  c #6B54EB",
"~  c #6957E7",
"^  c #7556E6",
"/  c #7353EB",
"(  c #7B54EB",
")  c #7158EC",
"_  c #7B58E8",
"`  c #6E4BF5",
"'  c #6E4EFB",
"]  c #724EF1",
"[  c #7C4CF4",
"{  c #744BFC",
"}  c #7A4FFF",
"|  c #6F51FF",
" . c #6D57F3",
".. c #7651F2",
"X. c #7C53F4",
"o. c #725AF5",
"O. c #7D5BF4",
"+. c #7452FC",
"@. c #7D54FD",
"#. c #7C5DFD",
"$. c #7D63F7",
"%. c #8058D5",
"&. c #905ED7",
"*. c #9B5EDF",
"=. c #9569D8",
"-. c #A77EDA",
";. c #B07DDA",
":. c #824EE8",
">. c #8155EC",
",. c #845AEB",
"<. c #8B5CEB",
"1. c #8955E4",
"2. c #955EE6",
"3. c #955EEF",
"4. c #814FF0",
"5. c #8057F6",
"6. c #8957F6",
"7. c #8B5EF4",
"8. c #8057FE",
"9. c #8B53FF",
"0. c #825AFC",
"q. c #8B5CFB",
"w. c #835FF5",
"e. c #925DF3",
"r. c #9A5EF4",
"t. c #935EFA",
"y. c #A058FF",
"u. c #8B67EF",
"i. c #8665E9",
"p. c #9A6AE4",
"a. c #9462EC",
"s. c #956CEC",
"d. c #9866E6",
"f. c #9470EE",
"g. c #9F71EB",
"h. c #9D79E2",
"j. c #8361F1",
"k. c #8C63F3",
"l. c #8B60F8",
"z. c #8263FE",
"x. c #9962F4",
"c. c #956AF3",
"v. c #9D6AF3",
"b. c #9962FA",
"n. c #976CFF",
"m. c #9B6AFE",
"M. c #9766F3",
"N. c #9770F1",
"B. c #9872F6",
"V. c #A668EB",
"C. c #A472E6",
"Z. c #A472EC",
"A. c #AD7BEC",
"S. c #A369FD",
"D. c #A066F9",
"F. c #B36EFD",
"G. c #A673F4",
"H. c #A87AF0",
"J. c #A472FA",
"K. c #A876F8",
"L. c #A87FFF",
"P. c #B879F0",
"I. c #B27CFE",
"U. c #B186DD",
"Y. c #BE99DE",
"T. c #A480E8",
"R. c #AF84EF",
"E. c #AE8AE5",
"W. c #B180EE",
"Q. c #AB91EA",
"!. c #BD96EA",
"~. c #A780F6",
"^. c #A583FD",
"/. c #AA8BFC",
"(. c #B582FD",
"). c #B988FF",
"_. c #B683F3",
"`. c #BE94F2",
"'. c #BE91FC",
"]. c #BE99FA",
"[. c #C892EF",
"{. c #CA9BE4",
"}. c #C98FF7",
"|. c #C485FA",
" X c #C48CFE",
".X c #C090F5",
"XX c #C19CF4",
"oX c #C493FF",
"OX c #CF94FF",
"+X c #C79CFC",
"@X c #CD99FF",
"#X c #CA9DF0",
"$X c #D69FFE",
"%X c #D294FF",
"&X c #C8A0EE",
"*X c #CFABEF",
"=X c #C1A9E2",
"-X c #D4B4EE",
";X c #CCA2FE",
":X c #CAACFF",
">X c #C8A9F1",
",X c #D3A6FD",
"<X c #D9A2FF",
"1X c #D5A9F4",
"2X c #C9B0F6",
"3X c #D2B0FF",
"4X c #E0AAFF",
"5X c None",
/* pixels */
"5X5X5X5X5X5X5X5X5X5X5X5X5X5X5X5X5X5X5X5X5X5X5X5X5X5X5X5X5X5X5X5X5X5X5X5X5X5X5X5X5X5X5X5X5X5X5X5X5X5X",
"5X5X5X5X5X5X5X5X5X5X5X5X5X5X5X5X5X5X5X5X5X5X5X5X5X5X5X5X5X5X5X5X5X5X5X5X5X5X5X5X5X5X5X5X5X5X5X5X5X5X",
"5X5X5X5X5X5X5X5X5X5X5X5X5X5X5X5X5X5X5X5X5X5X5X5X5X5X5X5X5X5X5X5X5X5X5X5X5X5X5X5X5X5X5X5X5X5X5X5X5X5X",
"5X5X5X5X5X5X5X5X5X5X5X5X5X5X5X5X5X5X5X5X5X5X5X5X5X5X5X5X5X5X5X5X5X5X5X5X5X5X5X5X5X5X5X5X5X5X5X5X5X5X",
"5X5X5X5X5X5X5X5X5X5X5X5X5X5X5X5X5X5X5X5X5X5X5X5X5X5X5X5X5X5X5X5X5X5X5X5X5X5X5X5X5X5X5X5X5X5X5X5X5X5X",
"5X5X5X5X5X5X5X5X5X5X5X5X5X5X5X5X5X5X5X5X5X5X5X5X5X5X5X5X5X5X5X5X5X5X5X5X5X5X5X5X5X5X5X5X5X5X5X5X5X5X",
"5X5X5X5X5X5X5X5X5X5X5X5X5X5X5X5X5X5X5X5X5X5X3X,X5X5X4X1X5X5X5X5X5X5X5X5X5X5X5X5X5X5X5X5X5X5X5X5X5X5X",
"5X5X5X5X5X5X5X5X5X5X5X5X5X5X5X5X5X5X5X5X5X5X).I.P.|.d.A.5X5X5X5X5X5X5X5X5X5X5X5X5X5X5X5X5X5X5X5X5X5X",
"5X5X5X5X5X5X5X5X5X5X5X5X5X5X5X5X5X5X5X;.5XoX0.9.t.b.5.<.5X&XU.5X5X5X5X5X5X5X5X5X5X5X5X5X5X5X5X5X5X5X",
"5X5X5X5X5X5X5X5X5X5X5X5X5X5X5X5X5X5X5XV.3.q.@.` ( Y ] z.B.^ V.5X5X5X5X5X5X5X5X5X5X5X5X5X5X5X5X5X5X5X",
"5X5X5X5X5X5X5X5X5X5X5X5X5X5X5X5X5X`. Xr.[ #.~ K C G G E P 5.y.F.5X5X5X5X5X5X5X5X5X5X5X5X5X5X5X5X5X5X",
"5X5X5X5X5X5X5X5X5X5X5X5X5X5X5X5X5XH.x.6.T H c 8 5 5 0 c J ( 9.S.+X5X5X5X5X5X5X5X5X5X5X5X5X5X5X5X5X5X",
"5X5X5X5X5X5X5X5X5X5X5X5X5X5X5X5X5Xc.^ ^ m i % + $ $ $ * e S O.T c.5X5X5X5X5X5X5X5X5X5X5X5X5X5X5X5X5X",
"5X5X5X5X5X5X5X5X5X5X5X5X5X5X5X2X/.i.J G w % o   o o o + % 9 C o.n.S.5X5X5X5X5X5X5X5X5X5X5X5X5X5X5X5X",
"5X5X5X5X5X5X5X5X5X5X5X5X5X5X=XE.L.O.H a * +         X o o * a ~ 5.e.=.5X5X5X5X5X5X5X5X5X5X5X5X5X5X5X",
"5X5X5X5X5X5X5X5X5X5X5X5X5X5X5XT._ E m 1 # o .   X X     . + 3 n T 4.p.5X5X5X5X5X5X5X5X5X5X5X5X5X5X5X",
"5X5X5X5X5X5X5X5X5X5X5X5X5X5X`.s.O.J 9 # o       .         o # r F #.2.}.5X5X5X5X5X5X5X5X5X5X5X5X5X5X",
"5X5X5X5X5X5X5X5X5X5X5X5X5X5X5Xu.) B , o         o   X       o , N T r.5X5X5X5X5X5X5X5X5X5X5X5X5X5X5X",
"5X5X5X5X5X5X5X5X5X5X5X5X5X[.(.1.~ g % +                     o * j / e.=.&X5X5X5X5X5X5X5X5X5X5X5X5X5X",
"5X5X5X5X5X5X5X5X5X5X5X5X{.<XD.^ J 0 $ o                   o   $ y J >.J.5X5X5X5X5X5X5X5X5X5X5X5X5X5X",
"5X5X5X5X5X5X5X5X5X5X5X5X$X=.7.$.S 4 #               X       o # 7 N X.7.C.5X5X5X5X5X5X5X5X5X5X5X5X5X",
"5X5X5X5X5X5X5X5X5X5X5X5X5XG.P D n : #   o                     # 1 n P 0.v.+X5X5X5X5X5X5X5X5X5X5X5X5X",
"5X5X5X5X5X5X5X5X5X5X5X5X5Xu.$.W v & +     o                   + = c o.+.J.oX5X5X5X5X5X5X5X5X5X5X5X5X",
"5X5X5X5X5X5X5X5X5X5X5X5XoXM.U Z z & o                         o = x  .+.>._.5X5X5X5X5X5X5X5X5X5X5X5X",
"5X5X5X5X5X5X5X5X5X5X5X5X%XM.z.~ z % o                         o % x Q | q.C.-X5X5X5X5X5X5X5X5X5X5X5X",
"5X5X5X5X5X5X5X5X5X5X5X1X|.D.0.D h % o       o                 o & h Q | m.5X5X5X5X5X5X5X5X5X5X5X5X5X",
"5X5X5X5X5X5X5X5X5X5X5X5X_.3.8.o.k % o .     o                 o & v ! #.m._.5X5X5X5X5X5X5X5X5X5X5X5X",
"5X5X5X5X5X5X5X5X5X5X5X5XoXa.@.! b = +                         + = m L ] M.5X5X5X5X5X5X5X5X5X5X5X5X5X",
"5X5X5X5X5X5X5X5X5X5X5X5X:Xg.5.I B 2 +   .       o             + 1 n / T g.5X5X5X5X5X5X5X5X5X5X5X5X5X",
"5X5X5X5X5X5X5X5X5X5X5X5X5XC.>...N 5 +           o             # 5 N O.,.s.5X5X5X5X5X5X5X5X5X5X5X5X5X",
"5X5X5X5X5X5X5X5X5X5X5X5X5X%XD.7.H t #         o   o           # y J Y m.'.!.5X5X5X5X5X5X5X5X5X5X5X5X",
"5X5X5X5X5X5X5X5X5X5X5X5X5X5XV.:.E d $                         $ k ) l.s.+X5X5X5X5X5X5X5X5X5X5X5X5X5X",
"5X5X5X5X5X5X5X5X5X5X5X5X5X5X%Xb.! V ; o .       .   o o     + > F I u.:X5X5X5X5X5X5X5X5X5X5X5X5X5X5X",
"5X5X5X5X5X5X5X5X5X5X5X5X5X5X5X1.o.H e #   . .       @ o X o $ i ^ 8.i.Q.5X5X5X5X5X5X5X5X5X5X5X5X5X5X",
"5X5X5X5X5X5X5X5X5X5X5X5X5X5X<XG.X.U B < # o   . .         + 2 N I ( ~.5X5X5X5X5X5X5X5X5X5X5X5X5X5X5X",
"5X5X5X5X5X5X5X5X5X5X5X5X5X5X,X&.( #.P s * + o         o o & f H ^ ^.h.>X5X5X5X5X5X5X5X5X5X5X5X5X5X5X",
"5X5X5X5X5X5X5X5X5X5X5X5X5X5XY.E.c.j.] J q $ o O       o $ q K L _ ~.:X5X5X5X5X5X5X5X5X5X5X5X5X5X5X5X",
"5X5X5X5X5X5X5X5X5X5X5X5X5X5X5X5X5Xc.[ ..A w = $ # # $ - q M ! ) f.5X5X5X5X5X5X5X5X5X5X5X5X5X5X5X5X5X",
"5X5X5X5X5X5X5X5X5X5X5X5X5X5X5X5X*X_.m.@.] L l y 6 6 u c ! +.T 3.h.5X5X5X5X5X5X5X5X5X5X5X5X5X5X5X5X5X",
"5X5X5X5X5X5X5X5X5X5X5X5X5X5X5X5X5X#Xc.q.} { ) D C G C Q ' { t.I.5X5X5X5X5X5X5X5X5X5X5X5X5X5X5X5X5X5X",
"5X5X5X5X5X5X5X5X5X5X5X5X5X5X5X5X5X5X5Xd.1.7.O.U E E P ( q.e.v.5X5X5X5X5X5X5X5X5X5X5X5X5X5X5X5X5X5X5X",
"5X5X5X5X5X5X5X5X5X5X5X5X5X5X5X5X5X5X*X-.R.;X,._ j.j.( <.(.5X5X5X5X5X5X5X5X5X5X5X5X5X5X5X5X5X5X5X5X5X",
"5X5X5X5X5X5X5X5X5X5X5X5X5X5X5X5X5X5X5X5X5X5Xg.2.G.Z.J.Z.5X5X-X5X5X5X5X5X5X5X5X5X5X5X5X5X5X5X5X5X5X5X",
"5X5X5X5X5X5X5X5X5X5X5X5X5X5X5X5X5X5X5X5X5X5XXX.X5X<X@X5X5X5X5X5X5X5X5X5X5X5X5X5X5X5X5X5X5X5X5X5X5X5X",
"5X5X5X5X5X5X5X5X5X5X5X5X5X5X5X5X5X5X5X5X5X5X5X5X5X5X5X5X5X5X5X5X5X5X5X5X5X5X5X5X5X5X5X5X5X5X5X5X5X5X",
"5X5X5X5X5X5X5X5X5X5X5X5X5X5X5X5X5X5X5X5X5X5X5X5X5X5X5X5X5X5X5X5X5X5X5X5X5X5X5X5X5X5X5X5X5X5X5X5X5X5X",
"5X5X5X5X5X5X5X5X5X5X5X5X5X5X5X5X5X5X5X5X5X5X5X5X5X5X5X5X5X5X5X5X5X5X5X5X5X5X5X5X5X5X5X5X5X5X5X5X5X5X",
"5X5X5X5X5X5X5X5X5X5X5X5X5X5X5X5X5X5X5X5X5X5X5X5X5X5X5X5X5X5X5X5X5X5X5X5X5X5X5X5X5X5X5X5X5X5X5X5X5X5X",
"5X5X5X5X5X5X5X5X5X5X5X5X5X5X5X5X5X5X5X5X5X5X5X5X5X5X5X5X5X5X5X5X5X5X5X5X5X5X5X5X5X5X5X5X5X5X5X5X5X5X",
"5X5X5X5X5X5X5X5X5X5X5X5X5X5X5X5X5X5X5X5X5X5X5X5X5X5X5X5X5X5X5X5X5X5X5X5X5X5X5X5X5X5X5X5X5X5X5X5X5X5X"
};
