/* XPM */
static char *_04_135283a13d4dbf56891d5b1c9021c9007080672b68b732536e96d13b88986b66[] = {
/* columns rows colors chars-per-pixel */
"50 50 195 2 ",
"   c #1B6CFF",
".  c #1B6BFF",
"X  c #1A6AFF",
"o  c #1A69FF",
"O  c #1968FF",
"+  c #1967FF",
"@  c #1865FF",
"#  c #1864FE",
"$  c #1764FF",
"%  c #1866FF",
"&  c #1867FF",
"*  c #1969FF",
"=  c #1A68FF",
"-  c #1966FF",
";  c #1A6BFF",
":  c #1966FE",
">  c #1965FE",
",  c #1864FF",
"<  c #1865FE",
"1  c #1765FF",
"2  c #1A67FF",
"3  c #1863FE",
"4  c #1763FE",
"5  c #1763FF",
"6  c #1863FF",
"7  c #1967FE",
"8  c #1866FE",
"9  c #1762FE",
"0  c #1762FF",
"q  c #1761FF",
"w  c #1661FF",
"e  c #1662FF",
"r  c #1661FE",
"t  c #1660FE",
"y  c #165FFE",
"u  c #155EFE",
"i  c #155DFE",
"p  c #1764FE",
"a  c #145CFE",
"s  c #145BFE",
"d  c #155CFE",
"f  c #145DFE",
"g  c #145AFD",
"h  c #135AFD",
"j  c #145BFD",
"k  c #1B6AFF",
"l  c #1965FF",
"z  c #1761FE",
"x  c #1760FE",
"c  c #155FFE",
"v  c #1662FE",
"b  c #1C6CFF",
"n  c #1C6DFF",
"m  c #1B6DFF",
"M  c #1C6EFF",
"N  c #1D6EFF",
"B  c #1862FE",
"V  c #1D6DFF",
"C  c #1D6FFF",
"Z  c #1E70FF",
"A  c #1F71FF",
"S  c #1E71FF",
"D  c #1E72FF",
"F  c #1F72FF",
"G  c #1F73FF",
"H  c #1D70FF",
"J  c #2072FF",
"K  c #2073FF",
"L  c #2174FF",
"P  c #2175FF",
"I  c #2075FF",
"U  c #2076FF",
"Y  c #2176FF",
"T  c #1F74FF",
"R  c #2276FF",
"E  c #2278FF",
"W  c #2279FF",
"Q  c #237AFF",
"!  c #227AFF",
"~  c #2177FF",
"^  c #2074FF",
"/  c #2378FF",
"(  c #2379FF",
")  c #237BFF",
"_  c #247CFF",
"`  c #247DFF",
"'  c #2178FF",
"]  c #1E73FF",
"[  c #247BFF",
"{  c #247EFF",
"}  c #237DFF",
"|  c #227CFF",
" . c #227BFF",
".. c #2179FF",
"X. c #1E6FFF",
"o. c #257FFF",
"O. c #2580FF",
"+. c #2480FF",
"@. c #247FFF",
"#. c #257EFF",
"$. c #2581FF",
"%. c #2682FF",
"&. c #2683FF",
"*. c #2583FF",
"=. c #2582FF",
"-. c #2481FF",
";. c #237EFF",
":. c #217AFF",
">. c #2684FF",
",. c #2584FF",
"<. c #2077FF",
"1. c #2685FF",
"2. c #2482FF",
"3. c #237FFF",
"4. c #217BFF",
"5. c #2078FF",
"6. c #1D71FF",
"7. c #227DFF",
"8. c #2079FF",
"9. c #207AFF",
"0. c #1F77FF",
"q. c #1E74FF",
"w. c #2380FF",
"e. c #207BFF",
"r. c #217CFF",
"t. c #217DFF",
"y. c #227FFF",
"u. c #227EFF",
"i. c #1F78FF",
"p. c #1E75FF",
"a. c #1D73FF",
"s. c #1C6FFF",
"d. c #2282FF",
"f. c #2382FF",
"g. c #2281FF",
"h. c #1E76FF",
"j. c #1D74FF",
"k. c #1D72FF",
"l. c #2280FF",
"z. c #2384FF",
"x. c #2485FF",
"c. c #217EFF",
"v. c #207CFF",
"b. c #1F7AFF",
"n. c #1E77FF",
"m. c #1D75FF",
"M. c #2483FF",
"N. c #2381FF",
"B. c #2383FF",
"V. c #2484FF",
"C. c #2486FF",
"Z. c #2587FF",
"A. c #217FFF",
"S. c #207DFF",
"D. c #1F7BFF",
"F. c #1E79FF",
"G. c #2585FF",
"H. c #2588FF",
"J. c #1F7CFF",
"K. c #1E78FF",
"L. c #2686FF",
"P. c #2687FF",
"I. c #2688FF",
"U. c #2689FF",
"Y. c #2589FF",
"T. c #2488FF",
"R. c #2180FF",
"E. c #268AFF",
"W. c #268BFF",
"Q. c #258AFF",
"!. c #278AFF",
"~. c #278BFF",
"^. c #278CFF",
"/. c #278DFF",
"(. c #278EFF",
"). c #268DFF",
"_. c #258CFF",
"`. c #258BFF",
"'. c #2489FF",
"]. c #2487FF",
"[. c #2385FF",
"{. c #2283FF",
"}. c #278FFF",
"|. c #2790FF",
" X c #268EFF",
".X c #258DFF",
"XX c #2386FF",
"oX c #2586FF",
"OX c #268FFF",
"+X c #248AFF",
"@X c #2388FF",
"#X c #268CFF",
"$X c #248BFF",
"%X c #2389FF",
"&X c white",
/* pixels */
"    . . X X o o O + @ @ # # # # # # $ $ @ @ % % & & % % + + + O * * o o X X X X X X o o o o o o o o ",
"    . . X X o = + - % @ # # # # # # $ $ @ @ % % & & % % + + - + O O O O * o o o o o o o o o o o o o ",
". . ; X o o o = + - : > > > # # # # , , @ @ @ @ % % @ @ % % @ @ % % % % & + O O O O O O O O O O O O ",
". . X X o o o = + - : : : > < # # < @ @ @ @ @ @ % % @ @ % @ $ $ , , $ $ 1 @ % - - - + + - - + + + O ",
"X X X X o o o o = 2 = 2 : : : > > : - - - - - - - - : : < < # # # 3 4 4 4 4 5 6 6 , , @ @ @ @ % % & ",
"X X X X o o o o = = = = 7 : : : : 7 + + + + + + + + 7 : 8 < < # # 3 4 9 9 9 0 q q w w w e e 5 5 $ $ ",
"X X o o o o O O o o o = 7 7 + + 2 = = = = = = = = = O + + + : > @ , # 3 4 9 r t y u u i i i u y t t ",
"X X o o o o O O o o o o 7 7 + O = = = = o o o o o o O O O O 7 : % @ < # p 4 r t u i i a a s d i f f ",
"X X o o o o O O o o o = + + = o o o o o o o o o o o o o = = = 2 + - : > # 4 9 r t y y u i d a a g h ",
"X X o o o o O O o o o o O O o o o o o o o o o o o o o o = = = = O + 7 : > # 3 9 r r r t y u i a j h ",
"X X X X o o = = o o o o o o o X X X k k X X k k X X X o o o o o = = = 2 - l # 3 4 9 9 z x t y u i f ",
"X X X X X o = = o o o o o o X X X X k k X X . . ; X X X X o o o o = = = + - < # p 4 4 9 9 z t y c c ",
"k k . . X o o o o o o o X X X X . . . . . .       . . . . k X X X o = = + - < # # # 3 3 9 z r t t t ",
"k k . . X X o o o o o o X X X ; .     . .             . . . X X X X o = O + 8 < # # 3 3 9 9 v r r r ",
". . . . . . X o o o o X k . .   b n n b b n n n n n n b   . . . X X o o O + - l < # 3 3 4 4 9 9 z z ",
". . . . . . ; X X X X . .     m n n n n n n n n n n n n m     . ; X o o O O + - < < # 3 4 4 9 9 9 z ",
"b b b b     . . . .   b n n n M N N N N N N N N N N M M M n n b   . X o O O + - - l # 3 3 3 4 4 3 B ",
"N N V V n M M M N N C C C C C C C C N N C C N N N N M M M M n n n   X o o O O + + - < # # 3 4 4 3 # ",
"Z Z Z Z A A S D F G D D S S Z H C C C C C C C C C C C C N N N N n     . . X o = O + - l @ , # # , @ ",
"J J J K L P I U Y Y U I T G F S Z H C C C C C C C C C C N N N N M n m     . X o * O + - % @ < < @ @ ",
"P P P R E W Q Q ! W E ~ U I ^ G D S S Z C C C C C C C C C C C C C N n b   . . k X o o = O + - - - - ",
"/ / / ( ) _ ` ` _ ) ! W ' U I ^ G ] D S H H C C C C C C C C C C C C M n m   . . X X X o * O O + + + ",
"[ [ [ _ ` { { { { } |  ...' Y I I T T ] D S Z X.C C C C C C C C C C C N n b . . . . X X X o o = = = ",
"` ` { o.O.O.+.+.+.@.} |  ...' ~ U I I T G D S Z H H C C C C C C C C C C M n     . . X X X X X o o o ",
"#.o.O.$.%.&.*.*.=.-.@.;.}  .:.' ~ Y U I ^ G G D S S S Z C C C C C C C C C N M n   . . . . . X X X X ",
"o.O.=.*.>.>.,.,.,.*.$.+.{ } | :...' <.U I I ^ G G F F S Z H H H H H C C C C M M n     . . . X X X X ",
"O.$.%.&.>.>.>.>.1.>.*.=.+.;.} |  .:...' ~ ~ U I ^ K K G F D S S S S S Z C C C C N M   . . . X X X X ",
"$.=.&.&.&.>.>.>.>.>.,.*.2.+.;.} |  .:.....' <.U I I I I T T G G G G G D S Z H C C N n     . ; X X X ",
"=.=.&.&.*.*.&.&.*.*.,.,.*.-.3.;.} | 4.:...' ' ~ <.U U U U U U U U <.U U ^ G S Z C C N M n     . . . ",
"=.=.&.&.=.=.&.&.=.=.*.,.*.=.-.3.;.} | 4.:.....' 5.<.<.<.<.5.5.5.........' U T D 6.H C C M n m     . ",
"=.=.&.&.%.%.=.=.=.=.*.*.*.*.2.-.3.;.7.|  .! :...8.5.5.5.5.8.8.9.:.4.| |  .:.8.0.q.D 6.C C N M n n b ",
"=.=.&.&.%.%.=.=.=.=.*.*.*.*.2.2.w.3.;.7.|  .4.:.:.8.8.8.9.9.e.4.r.t.y.y.y.u.r.9.i.p.a.6.H C s.M M n ",
"=.=.=.=.*.*.=.=.=.=.=.=.2.2.*.=.2.-.+.3.;.7.|  . .4.4.4.r.r.r.7.7.y.d.f.f.g.y.t.e.i.h.j.k.6.H C C N ",
"=.=.=.=.*.*.=.=.=.=.=.=.2.2.*.*.2.2.-.+.+.3.;.;.;.u.7.u.u.;.;.y.l.f.z.x.x.z.f.l.c.v.b.n.m.a.k.k.6.6.",
"$.$.=.=.=.=.=.=.*.*.*.*.*.*.=.=.M.M.=.=.=.2.-.-.-.N.N.w.N.-.-.N.B.V.C.Z.Z.C.x.z.g.A.S.D.F.n.h.h.m.m.",
"$.$.=.=.=.=.=.=.*.*.*.*.*.*.=.=.M.M.,.,.,.,.,.,.G.G.,.,.,.V.M.V.C.Z.Z.H.H.H.Z.C.z.d.A.S.J.D.b.F.K.K.",
"=.=.=.=.=.=.=.=.*.*.=.=.*.*.*.*.,.,.,.G.1.L.L.P.P.I.I.I.I.Z.Z.Z.H.U.U.U.U.U.Y.T.C.z.d.R.c.v.e.D.b.b.",
"=.=.=.=.=.=.=.=.*.*.=.=.*.*.*.*.,.,.G.G.1.L.P.P.I.U.E.E.E.E.U.E.W.W.W.W.W.W.Q.Y.T.C.z.d.g.A.c.S.t.r.",
"$.$.$.$.$.$.=.=.=.=.2.2.=.=.*.*.,.,.,.,.,.G.L.P.P.I.U.E.!.~.^.^./.(.(.(.(.)._.`.Q.'.].[.z.{.g.R.l.y.",
"$.$.$.$.$.$.=.=.=.=.2.2.=.=.=.*.*.,.,.,.,.,.1.L.L.P.I.U.!.~.^.(.}.|.}.}.}.}. X.X_.`.Y.T.].XXz.{.{.{.",
"$.$.$.$.$.$.$.$.=.=.2.2.2.2.=.=.M.M.,.,.M.M.,.,.G.oXoXZ.I.E.^./.}.|.|.|.|.|.}.OX X).`.Q.'.T.].XXXXXX",
"$.$.$.$.$.$.$.$.=.=.2.2.2.2.$.$.2.M.,.,.M.M.*.*.,.G.G.oXP.I.!.^./.}.}.}.|.|.|.}.OX X.X_.`.+X'.'.@X@X",
"@.+.O.O.-.-.$.$.$.$.-.-.-.-.-.-.2.M.*.*.2.2.M.M.M.V.,.G.G.L.P.I.E.W./.(.(.}.OXOXOX X).#X`.`.$X+X'.'.",
"@.@.O.O.-.-.$.$.$.$.-.-.-.-.-.-.2.2.*.*.2.2.2.M.M.M.,.,.G.G.G.L.P.U.E.W.^.#X).). X X).#X`.`.$X+X+X'.",
"3.3.@.@.O.O.-.-.$.$.+.+.+.+.-.-.2.2.2.2.-.-.2.2.M.M.,.,.V.V.x.oXoXZ.Z.H.H.Y.Q.`._._._.`.`.+X+X+X+X+X",
"3.3.@.@.O.O.-.-.$.$.+.+.+.+.-.-.2.2.2.2.-.-.2.2.M.M.,.,.V.V.V.x.G.x.x.C.C.Z.T.'.Y.Q.Q.Q.+X+X+X+X+X+X",
";.;.3.@.+.+.-.-.O.O.+.+.+.+.+.-.2.2.-.-.-.-.2.2.2.2.M.M.M.M.M.V.V.V.z.[.x.C.C.].].T.T.'.'.'.'.'.%X%X",
";.;.;.3.w.+.+.+.O.O.+.+.+.+.+.+.-.2.-.-.-.-.2.2.2.2.M.M.M.M.M.M.M.V.z.z.V.x.x.x.x.C.].].T.T.T.T.@X@X",
"7.7.7.u.3.w.+.+.+.+.$.$.-.-.+.+.-.-.-.-.2.2.f.f.M.M.M.M.2.2.2.2.B.B.B.B.B.z.V.V.V.V.x.C.].T.T.T.T.].",
"7.7.7.u.3.w.@.@.+.+.$.$.-.-.+.+.-.-.-.-.2.2.f.f.M.M.M.2.-.-.2.2.B.B.B.B.B.B.V.V.V.V.V.x.C.].T.T.].]."
};
